<svg xmlns="http://www.w3.org/2000/svg" width="22.328" height="14.073" viewBox="0 0 22.328 14.073">
  <g id="chevron-arrow-up" transform="translate(0 -82.224)">
    <path id="Path_2" data-name="Path 2" d="M21.783,92.084l-9.315-9.33a1.834,1.834,0,0,0-1.3-.53,1.756,1.756,0,0,0-1.29.53l-9.33,9.33A1.779,1.779,0,0,0,0,93.388a1.7,1.7,0,0,0,.545,1.29l1.075,1.075a1.7,1.7,0,0,0,1.29.545,1.7,1.7,0,0,0,1.29-.545L11.164,88.8l6.965,6.951a1.7,1.7,0,0,0,1.29.545,1.78,1.78,0,0,0,1.3-.545L21.8,94.678a1.756,1.756,0,0,0,.53-1.29A1.778,1.778,0,0,0,21.783,92.084Z" transform="translate(0)" fill="#fff"/>
  </g>
</svg>
