<svg xmlns="http://www.w3.org/2000/svg" width="25.236" height="21.351" viewBox="0 0 25.236 21.351">
  <g id="telegram" transform="translate(0)">
    <path id="Path_3" data-name="Path 3" d="M24.846.585A1.639,1.639,0,0,0,23.546,0a2.554,2.554,0,0,0-.907.181L1.277,8.335C.143,8.767-.01,9.417,0,9.765s.2.988,1.355,1.356l.021.006,3,.857,14.59-7.454A.739.739,0,0,1,19.837,5.7h0l-8.112,8.619-.231.938,2.9,2.333L18.4,20.818l.011.008a2.294,2.294,0,0,0,1.4.524,1.958,1.958,0,0,0,1.867-1.736l3.5-17.282A2.065,2.065,0,0,0,24.846.585Zm0,0" transform="translate(0)" fill="#fff"/>
    <path id="Path_4" data-name="Path 4" d="M125.317,163.982a.737.737,0,0,1,.179-.33L130.819,158l-9.877,5.046,2.243,6.414a2.507,2.507,0,0,0,.553.92l1.579-6.4Zm0,0" transform="translate(-114.981 -150.209)" fill="#fff"/>
    <path id="Path_5" data-name="Path 5" d="M205.6,345.529a2.269,2.269,0,0,0,1.516-.652l1.641-1.511-2.188-1.762Zm0,0" transform="translate(-195.468 -324.768)" fill="#fff"/>
  </g>
</svg>
