<svg xmlns="http://www.w3.org/2000/svg" version="1" viewBox="0 0 360 90">
  <defs>
    <linearGradient id="a" x1="66" x2="60" y1="50" y2="99" gradientUnits="userSpaceOnUse">
      <stop offset="0" stop-color="#fff"/>
      <stop offset="1" stop-color="#fff" stop-opacity="0"/>
    </linearGradient>
  </defs>
  <g transform="translate(181)">
    <ellipse cx="-4.5" cy="308" fill="url(#a)" opacity=".3" rx="310" ry="266"/>
    <ellipse fill="#fff" rx="12" ry="11" transform="translate(83.21772606 32.79276891) scale(1.43078)"/>
    <ellipse fill="#fff" rx="12" ry="11" transform="translate(102.7823343 15.49738886) scale(.45973)"/>
    <path fill="#fff" d="M13.32953872 12.1671743c-1.19544849.14779094-2.13231334 1.1020132-2.13628282 2.25690256l.07544948 58.96904041c0 .89307233.24157582 2.73474534 2.753864 2.73474534l22.58342989-.09007796c6.45534924-.01156915 10.77904745-.12192078 13.35397247-.44745736.01502677.00010473.04609368.00006195.06111897-.00009146 2.46416773-.34227592 5.07436958-.97294118 7.9125115-1.89447393 4.93382576-1.54262614 9.30892503-3.82183651 13.0707253-6.86603698 3.68317491-2.94909538 6.53734075-6.44067502 8.54342162-10.3684674 2.0059068-3.92769206 3.01708975-8.08062772 3.0095535-12.38592564-.01066196-5.99282382-1.82350725-11.60439683-5.46091744-16.6528697-3.63778044-5.0486897-8.60322333-8.91505187-14.71384946-11.4756154-6.212229-2.63369858-14.31212586-3.83373165-24.3608833-3.8157783l-24.38651743.03565887c-.10483774.00058266-.20428402-.01207806-.30559628.00044695zM26.4551345 24.3012752l10.51248505-.015369c4.91296502-.00875171 8.40818223.14046712 10.39078996.41274108 2.00979663.27610329 4.2109525.85877053 6.542005 1.75922274 2.31036284.88030835 4.32440035 1.95845457 6.05502402 3.3004918 4.76118837 3.70174485 7.00561018 8.08278874 7.01591222 13.88329744.01043628 5.93933993-2.15849917 10.5656577-6.7963079 14.44554055-1.42667653 1.1775866-3.01314388 2.17607785-4.7634556 3.00249519-1.65431715.77044202-3.81225726 1.43446796-6.53718734 2.00657797-2.5698979.51407399-6.47142184.8066098-11.55048664.8156949l-10.81807839.01581889-.05070038-39.62651157z"/>
  </g>
</svg>
